<?xml version="1.0" encoding="UTF-8"?>
<svg version="1.1" viewBox="0 0 1600 1048" width="1280" height="1280" xmlns="http://www.w3.org/2000/svg">
<path transform="translate(0)" d="m0 0h1600v413l-4-5c0 3.02 0.15 5.77 0.5 8.75 0.14 1.2 0.14 1.2 0.28 2.42 0.07 0.61 0.15 1.21 0.22 1.83h2l1-3v247l-12-1c-2.41-0.08-4.83-0.14-7.24-0.15-1.29 0-2.57-0.01-3.9-0.01-1.36-0.01-2.73-0.01-4.09-0.01-1.44 0-2.89 0-4.33-0.01-3.01 0-6.03-0.01-9.04-0.01-3.05 0-6.1 0-9.15-0.02-21.4-0.19-21.4-0.19-42.7 1.72-6.38 0.87-12.8 1.04-19.2 1.24-1.95 0.08-1.95 0.08-3.93 0.17-6.3 0.21-11.5 0.22-17.4-1.92-2.33 0.26-2.33 0.26-4 1-2.13-3.2-2.32-4.29-2.38-8-0.04-1.3-0.04-1.3-0.08-2.62 0.46-2.38 0.46-2.38 2.3-4.19 2.16-1.19 2.16-1.19 5.16-1.19l-1-41h-2c-0.18-0.93-0.36-1.86-0.55-2.82-1.31-6.42-2.68-12.2-5.45-18.2v-3h-3c-0.25-0.71-0.51-1.42-0.77-2.15-0.34-0.92-0.69-1.84-1.04-2.79-0.34-0.91-0.68-1.83-1.02-2.77-1-2.62-1-2.62-4.17-3.29-0.31-0.63-0.61-1.25-0.93-1.9-1.33-2.61-2.66-3.32-5.19-4.72-2.2-1.23-2.2-1.23-3.88-2.38v-2c-0.89-0.25-1.77-0.5-2.69-0.75-3.99-1.51-7.35-3.33-9.31-7.25-6.95-3.48-13.3-3.32-21-3v2c0.63 0.27 1.25 0.53 1.9 0.8 0.82 0.36 1.63 0.71 2.48 1.08 0.81 0.34 1.62 0.69 2.46 1.05 2.16 1.07 2.16 1.07 4.16 3.07-1.6-0.31-3.21-0.62-4.81-0.94-0.9-0.17-1.79-0.35-2.71-0.52-2.48-0.54-2.48-0.54-5.48-1.54v-2l-4-1v-1c-10.2-0.39-19.2-0.57-29 2.99-4.09 1.37-8.18 1.86-12.4 2.32-3.22 0.87-4.51 2.09-6.56 4.69-0.81 3.65-0.81 3.65-1 7-2.31-0.33-4.62-0.66-7-1-0.2-4.29 0.33-7.08 2-11 2.3-11 3.3-30.2-2.31-40.4-2.03-1.96-3.1-2.2-5.88-2.38-1.26-0.08-2.51-0.16-3.81-0.25l2 5h-2c-0.4-1.21-0.4-1.21-0.81-2.44-0.59-1.27-0.59-1.27-1.19-2.56-0.99-0.33-1.98-0.66-3-1v-2c-1.12 0.01-2.24 0.02-3.39 0.04-1.48 0-2.95 0.01-4.42 0.02-0.74 0.01-1.48 0.02-2.24 0.03-3.25 0.01-5.84-0.05-8.95-1.09-3.07-0.22-6.12-0.38-9.19-0.5-0.96-0.04-1.93-0.08-2.93-0.13-7.04-0.28-14.1-0.43-21.1-0.55-2.71-0.05-5.43-0.1-8.15-0.15-1.81-0.03-3.63-0.05-5.44-0.07-2.57-0.03-5.15-0.08-7.73-0.12-0.78-0.01-1.55-0.01-2.35-0.01-4.6-0.11-7.31-0.88-11.1-3.47-3.34-0.5-3.34-0.5-6.88-0.56-3.65-0.13-6.73-0.32-10.2-1.42-4.6-1.35-9.14-1.48-13.9-1.64-1.54-0.05-1.54-0.05-3.1-0.11-14.9-0.48-29.8-0.42-44.7-0.4-4.34 0.01-8.68 0-13 0-3.36-0.01-6.73-0.01-10.1 0-1.6 0-3.2 0-4.81-0.01-2.21 0-4.43 0.01-6.64 0.01h-3.81c-2.71-0.19-2.71-0.19-3.81 1.13-2.27 0.16-4.54 0.25-6.81 0.32-0.73 0.02-1.46 0.04-2.21 0.06-2.47 0.07-4.94 0.13-7.42 0.18-0.85 0.02-1.7 0.04-2.58 0.07-17.4 0.41-34.9 0.48-52.4 0.49-1.3 0.01-2.61 0.01-3.96 0.01-3.73 0.01-7.46 0.01-11.2 0-1.13 0-2.27 0.01-3.43 0.01-1.55-0.01-1.55-0.01-3.13-0.01h-2.75c-2.17-0.13-2.17-0.13-4.17-1.13-3.01-0.16-6-0.26-9.02-0.32-1.38-0.03-1.38-0.03-2.78-0.06-3.01-0.07-6.01-0.13-9.01-0.18-1.02-0.02-2.03-0.04-3.08-0.06-7.04-0.15-14.1-0.27-21.1-0.38-0.83-0.01-1.67-0.03-2.53-0.04-4.82-0.07-9.65-0.12-14.5-0.15-1.17-0.01-2.33-0.02-3.53-0.04h-3.22c-1.35-0.01-1.35-0.01-2.73-0.01-2.82 0.27-4.93 1.13-7.52 2.24-1.93 0.28-3.87 0.48-5.81 0.62-1.47 0.12-1.47 0.12-2.96 0.23-0.74 0.05-1.47 0.1-2.23 0.15v2h-60v3c-4.46 1.49-4.46 1.49-9 3-0.1 23.1-0.18 46.3 0.26 69.4 0.04 1.75 0.06 3.5 0.09 5.25 0.03 2.43 0.08 4.87 0.14 7.3 0 0.7 0.01 1.4 0.02 2.12 0.11 3.62 0.64 6.59 2 9.91 1.63 4 1.92 7.75 1.9 12 0.01 0.73 0.02 1.47 0.03 2.22 0.04 3.09 0.06 6.18 0.07 9.28 0.02 2.27 0.05 4.54 0.08 6.82 0 0.69 0 1.38-0.01 2.09 0.07 4.39 0.92 6.97 3.42 10.6 0.59 2.35 0.59 2.35 0.94 4.62 0.78 4.06 1.75 4.95 5.06 7.38 0.34 3.76 0.19 6.42-1 10h-4v-2c-11.5-0.02-23-0.04-34.6-0.05-5.36-0.01-10.7-0.01-16.1-0.03-5.18-0.01-10.4-0.01-15.5-0.01-1.96-0.01-3.93-0.01-5.89-0.02-13.8-0.05-13.8-0.05-27.6 0.93-3.28 0.26-6.09-0.11-9.3-0.82l-1-1c-8.06-2.07-16.1-2.32-24.4-2.38-1.23-0.02-2.47-0.03-3.75-0.05-3.92-0.05-7.84-0.09-11.8-0.13-3.94-0.05-7.88-0.09-11.8-0.15-2.44-0.03-4.88-0.05-7.33-0.08-1.1-0.01-2.21-0.02-3.34-0.04-0.97-0.01-1.94-0.02-2.94-0.03-2.65-0.14-5.1-0.55-7.69-1.14v-2c-9.81-0.02-19.6-0.04-29.4-0.05-4.56-0.01-9.11-0.01-13.7-0.03-28-0.12-28-0.12-55.9 1.08v-2c-1.07 0.01-2.14 0.02-3.25 0.04-1.39 0-2.79 0.01-4.19 0.02-0.7 0.01-1.41 0.02-2.14 0.03-1.81 0.01-3.61-0.04-5.42-0.09l-1-1c-2.23-0.1-4.46-0.13-6.69-0.13h-2.15c-2.39-0.01-4.78 0-7.18 0h-5.12c-4.66-0.01-9.32-0.01-14 0-4.88 0-9.76 0-14.6-0.01-8.22 0-16.4 0-24.6 0.01-9.46 0.01-18.9 0-28.4 0-8.13-0.01-16.3-0.01-24.4 0-4.85 0-9.7 0-14.6-0.01-4.58 0-9.16 0-13.7 0.01h-5.01c-17.9-0.46-17.9-0.46-35.5 2.13-9.55 0.37-19.2-0.1-28.7-0.44-1.87-0.06-1.87-0.06-3.78-0.12-1.78-0.06-1.78-0.06-3.6-0.12-1.07-0.04-2.14-0.08-3.24-0.11-2.69-0.21-2.69-0.21-5.69-1.21-2.73-0.1-5.44-0.13-8.17-0.13h-2.56c-2.83-0.01-5.67 0-8.5 0h-6.09c-5.52-0.01-11-0.01-16.6 0-5.77 0-11.6 0-17.3-0.01-9.7 0-19.4 0-29.1 0.01-11.2 0.01-22.4 0-33.6 0-9.62-0.01-19.2-0.01-28.9 0-5.75 0-11.5 0-17.2-0.01-5.4 0-10.8 0-16.2 0.01h-5.95c-2.71-0.01-5.42 0-8.13 0h-2.37c-4.53 0.01-8.83 0.41-13.3 1.13-2.02 0.13-4.04 0.22-6.05 0.28-1.84 0.06-1.84 0.06-3.71 0.11-1.37 0.04-2.74 0.07-4.12 0.11-0.7 0.02-1.41 0.04-2.14 0.06-28 0.77-56 1.05-84 1.44v2c-3.84 0.9-7.38 1.11-11.3 1.06-1.07-0.01-2.14-0.02-3.24-0.02-1.21-0.02-1.21-0.02-2.45-0.04 0.5-2.47 0.5-2.47 1-5 2.31-0.33 4.62-0.66 7-1-2.97-0.33-5.94-0.66-9-1v-660zm1595 270v8h1v-8h-1z"/>
<path transform="translate(1407,574)" d="m0 0c0.49 0.5 0.49 0.5 1 1 1.34 0.16 2.69 0.25 4.04 0.32 1.21 0.06 1.21 0.06 2.45 0.12 1.27 0.06 1.27 0.06 2.57 0.12 0.86 0.05 1.71 0.09 2.59 0.13 2.12 0.11 4.23 0.21 6.35 0.31v2c0.68-0.05 1.35-0.09 2.05-0.14 7.3-0.3 7.3-0.3 10.4 1.83 2.56 3.94 3.71 7.7 4.5 12.3h2c0.2 2.02 0.39 4.04 0.59 6.05 0.27 2.18 0.27 2.18 2.41 3.95 0.4 2.32 0.74 4.66 1 7h2v19h-2l-1 5h-2c-0.18 0.85-0.36 1.71-0.55 2.59-0.25 1.1-0.5 2.21-0.76 3.35-0.25 1.1-0.49 2.2-0.74 3.34-0.31 0.9-0.63 1.79-0.95 2.72-1.48 0.5-1.48 0.5-3 1-0.28 1.76-0.28 1.76-0.56 3.56-1.11 5.43-4.89 7.77-9.13 11-2.31 1.47-2.31 1.47-4.31 1.47v2c-2.12 2.25-2.12 2.25-5 4-0.82-0.29-1.64-0.58-2.49-0.87-4.88-1.57-9.47-1.42-14.6-1.4h-3.22c-2.24 0-4.48 0-6.72 0.01-3.42 0.01-6.84 0-10.3-0.01h-6.55c-1.02 0-2.03 0-3.08-0.01-5.45 0.04-9.87 0.67-15.1 2.28-3.46 0.23-3.46 0.23-7.03 0.2-1.28-0.01-2.57-0.02-3.89-0.02l-4.02-0.06c-1.36-0.01-2.73-0.01-4.09-0.02-3.33-0.03-6.65-0.06-9.97-0.1-0.06-3.23-0.09-6.46-0.12-9.69-0.02-0.91-0.04-1.82-0.06-2.76-0.06-8.58-0.06-8.58 2.18-12.6l2-2c0.84-2.05 1.52-4.12 2.22-6.22 0.78-1.78 0.78-1.78 2.78-2.78 0.06-0.62 0.12-1.24 0.19-1.88 0.81-2.12 0.81-2.12 4.12-3.81 3.69-1.31 3.69-1.31 6.07-1.81 0.8-0.25 0.8-0.25 1.62-0.5l1-3h2c0.36-1.6 0.72-3.21 1.06-4.81 0.2-0.9 0.4-1.79 0.6-2.71 0.54-2.61 0.54-2.61-0.66-5.48 0.75-3.12 0.75-3.12 2-6 0.99-0.33 1.98-0.66 3-1 0.71-1.99 1.37-3.99 2-6 1.91-3.07 2.49-3.83 6-5l1-7c1.14-0.38 1.14-0.38 2.3-0.77 1.49-0.52 1.49-0.52 3.01-1.04 0.99-0.34 1.97-0.68 2.99-1.02 2.69-0.96 2.69-0.96 4.18-2.73 5.27-4.99 18.6-4.01 25.5-3.44z"/>
<path transform="translate(0,1029)" d="m0 0h1v19h-1v-19z"/>
<path transform="translate(1358,584)" d="m0 0 2 1-1 2h-2l1-3z"/>
<path transform="translate(1369,578)" d="m0 0 2 1z"/>
<path transform="translate(1365,578)" d="m0 0 2 1z"/>
<path transform="translate(1432,575)" d="m0 0 2 1z"/>
</svg>
